# xmcd CD database file generated by Grip 3.2.0
# 
# Track frame offsets:
#       157
#       9920
#       21905
#       34427
#       51780
#       70580
#       82795
#       106400
#       118650
#       137162
#       153565
#       163677
#       178657
#       193055
#       201662
#       220955
#       236342
#       250692
#       263182
#       277740
#       292845
#       305860
# 
# Disc length: 4261 seconds
# 
# Revision: 2
# Processed by: cddbd v1.5.1PL0 Copyright (c) Steve Scherf et al.
# Submitted via: Grip 3.2.0
# 
DISCID=3a10a316
DTITLE=John Hammond - The Best of John Hammond
DYEAR=1970
DGENRE=Blues
TTITLE0=My Babe
TTITLE1=I Wish You Would Come Back, Baby
TTITLE2=Milk Cow Calf's Blues
TTITLE3=No Money Down
TTITLE4=They Call It Stormy Monday (But Tuesday Is Just As Bad)
TTITLE5=Big Boss Man
TTITLE6=See That My Grave Is Kept Clean
TTITLE7=So Many Roads, So Many Trains
TTITLE8=Louise, Louise Blues
TTITLE9=32-20 Blues
TTITLE10=Baby, Please Don't Go
TTITLE11=I'm A Man
TTITLE12=Stones In My Passway
TTITLE13=Get Right Church
TTITLE14=Backdoor Man
TTITLE15=Statesborough Blues
TTITLE16=Traveling Riverside Blues
TTITLE17=Drop Down Mama
TTITLE18=Keys to the Highway
TTITLE19=Barbecue Blues
TTITLE20=Going Back to Florida
TTITLE21=Who Do You Love
EXTD=
EXTT0=
EXTT1=
EXTT2=
EXTT3=
EXTT4=
EXTT5=
EXTT6=
EXTT7=
EXTT8=
EXTT9=
EXTT10=
EXTT11=
EXTT12=
EXTT13=
EXTT14=
EXTT15=
EXTT16=
EXTT17=
EXTT18=
EXTT19=
EXTT20=
EXTT21=
PLAYORDER=
